<svg width="157" height="39" viewBox="0 0 157 39" fill="none" xmlns="http://www.w3.org/2000/svg">
<rect width="157" height="39" rx="4" fill="#3CB46E"/>
<path d="M35.83 23H39.01C41.3 23 42.87 21.62 42.87 19.5C42.87 17.38 41.3 16 39.01 16H35.83V23ZM37.45 21.67V17.33H38.93C40.32 17.33 41.23 18.16 41.23 19.5C41.23 20.84 40.32 21.67 38.93 21.67H37.45ZM46.3417 23.08C48.0517 23.08 49.2917 21.93 49.2917 20.31C49.2917 18.69 48.0517 17.54 46.3417 17.54C44.6317 17.54 43.3817 18.69 43.3817 20.31C43.3817 21.93 44.6317 23.08 46.3417 23.08ZM46.3417 21.8C45.5617 21.8 44.9617 21.24 44.9617 20.31C44.9617 19.38 45.5617 18.82 46.3417 18.82C47.1217 18.82 47.7117 19.38 47.7117 20.31C47.7117 21.24 47.1217 21.8 46.3417 21.8ZM57.248 17.62L55.938 21.26L54.658 17.62H53.338L52.018 21.26L50.748 17.62H49.278L51.218 23H52.718L53.968 19.66L55.178 23H56.678L58.628 17.62H57.248ZM62.4232 17.54C61.6932 17.54 61.0632 17.79 60.6432 18.25V17.62H59.1532V23H60.7132V20.34C60.7132 19.35 61.2532 18.89 62.0032 18.89C62.6932 18.89 63.0932 19.29 63.0932 20.16V23H64.6532V19.92C64.6532 18.28 63.6932 17.54 62.4232 17.54ZM65.8673 23H67.4273V15.58H65.8673V23ZM71.2351 23.08C72.9451 23.08 74.1851 21.93 74.1851 20.31C74.1851 18.69 72.9451 17.54 71.2351 17.54C69.5251 17.54 68.2751 18.69 68.2751 20.31C68.2751 21.93 69.5251 23.08 71.2351 23.08ZM71.2351 21.8C70.4551 21.8 69.8551 21.24 69.8551 20.31C69.8551 19.38 70.4551 18.82 71.2351 18.82C72.0151 18.82 72.6051 19.38 72.6051 20.31C72.6051 21.24 72.0151 21.8 71.2351 21.8ZM77.1099 17.54C76.2499 17.54 75.3799 17.77 74.7899 18.19L75.3499 19.28C75.7399 18.97 76.3299 18.78 76.8999 18.78C77.7399 18.78 78.1399 19.17 78.1399 19.84H76.8999C75.2599 19.84 74.5899 20.5 74.5899 21.45C74.5899 22.38 75.3399 23.08 76.5999 23.08C77.3899 23.08 77.9499 22.82 78.2399 22.33V23H79.6999V19.93C79.6999 18.3 78.7499 17.54 77.1099 17.54ZM76.9899 22.03C76.4399 22.03 76.1099 21.77 76.1099 21.38C76.1099 21.02 76.3399 20.75 77.0699 20.75H78.1399V21.3C77.9599 21.79 77.5099 22.03 76.9899 22.03ZM84.8904 15.58V18.19C84.5004 17.75 83.9404 17.54 83.2804 17.54C81.7604 17.54 80.5904 18.62 80.5904 20.31C80.5904 22 81.7604 23.08 83.2804 23.08C84.0004 23.08 84.5704 22.85 84.9604 22.38V23H86.4504V15.58H84.8904ZM83.5504 21.8C82.7704 21.8 82.1704 21.24 82.1704 20.31C82.1704 19.38 82.7704 18.82 83.5504 18.82C84.3204 18.82 84.9204 19.38 84.9204 20.31C84.9204 21.24 84.3204 21.8 83.5504 21.8ZM91.1063 16.87C91.6863 16.87 92.0763 16.49 92.0763 15.97C92.0763 15.49 91.6863 15.13 91.1063 15.13C90.5263 15.13 90.1363 15.51 90.1363 16C90.1363 16.49 90.5263 16.87 91.1063 16.87ZM90.3263 23H91.8863V17.62H90.3263V23ZM100.024 17.54C99.2141 17.54 98.5141 17.87 98.0841 18.42C97.7041 17.83 97.0641 17.54 96.3141 17.54C95.6241 17.54 95.0241 17.78 94.6241 18.24V17.62H93.1341V23H94.6941V20.3C94.6941 19.34 95.1841 18.89 95.8741 18.89C96.5241 18.89 96.8941 19.29 96.8941 20.16V23H98.4541V20.3C98.4541 19.34 98.9441 18.89 99.6441 18.89C100.274 18.89 100.664 19.29 100.664 20.16V23H102.224V19.92C102.224 18.28 101.304 17.54 100.024 17.54ZM105.592 17.54C104.732 17.54 103.862 17.77 103.272 18.19L103.832 19.28C104.222 18.97 104.812 18.78 105.382 18.78C106.222 18.78 106.622 19.17 106.622 19.84H105.382C103.742 19.84 103.072 20.5 103.072 21.45C103.072 22.38 103.822 23.08 105.082 23.08C105.872 23.08 106.432 22.82 106.722 22.33V23H108.182V19.93C108.182 18.3 107.232 17.54 105.592 17.54ZM105.472 22.03C104.922 22.03 104.592 21.77 104.592 21.38C104.592 21.02 104.822 20.75 105.552 20.75H106.622V21.3C106.442 21.79 105.992 22.03 105.472 22.03ZM113.523 17.62V18.31C113.113 17.79 112.493 17.54 111.743 17.54C110.253 17.54 109.053 18.57 109.053 20.14C109.053 21.71 110.253 22.74 111.743 22.74C112.443 22.74 113.033 22.52 113.443 22.07V22.3C113.443 23.27 112.963 23.77 111.863 23.77C111.173 23.77 110.423 23.53 109.963 23.16L109.343 24.28C109.973 24.77 110.963 25.02 111.983 25.02C113.923 25.02 115.003 24.1 115.003 22.1V17.62H113.523ZM112.053 21.46C111.233 21.46 110.633 20.93 110.633 20.14C110.633 19.35 111.233 18.82 112.053 18.82C112.873 18.82 113.463 19.35 113.463 20.14C113.463 20.93 112.873 21.46 112.053 21.46ZM121.525 20.33C121.525 18.6 120.305 17.54 118.725 17.54C117.085 17.54 115.855 18.7 115.855 20.31C115.855 21.91 117.065 23.08 118.925 23.08C119.895 23.08 120.645 22.78 121.145 22.21L120.315 21.31C119.945 21.66 119.535 21.83 118.965 21.83C118.145 21.83 117.575 21.42 117.425 20.75H121.495C121.505 20.62 121.525 20.45 121.525 20.33ZM118.735 18.72C119.435 18.72 119.945 19.16 120.055 19.84H117.405C117.515 19.15 118.025 18.72 118.735 18.72Z" fill="white"/>
</svg>
