<svg width="61" height="24" viewBox="0 0 61 24" fill="none" xmlns="http://www.w3.org/2000/svg">
<path d="M18.5883 17.2941C21.5446 17.2941 23.9412 14.8975 23.9412 11.9412C23.9412 8.98483 21.5446 6.58824 18.5883 6.58824C15.6319 6.58824 13.2354 8.98483 13.2354 11.9412C13.2354 14.8975 15.6319 17.2941 18.5883 17.2941Z" stroke="#ECECEC" stroke-width="1.07059" stroke-linecap="round" stroke-linejoin="round"/>
<path d="M18.5879 14.0824V11.9412" stroke="#ECECEC" stroke-width="1.07059" stroke-linecap="round" stroke-linejoin="round"/>
<path d="M18.5879 9.79999H18.5937" stroke="#ECECEC" stroke-width="1.07059" stroke-linecap="round" stroke-linejoin="round"/>
<path d="M33.1661 15H33.9896V9.23529H33.1661V15ZM37.9308 10.5941C37.2391 10.5941 36.6791 10.8494 36.3579 11.2941V10.6353H35.6002V15H36.3908V12.7518C36.3908 11.8047 36.9343 11.3024 37.7743 11.3024C38.5238 11.3024 38.952 11.7224 38.952 12.5788V15H39.7426V12.4882C39.7426 11.2035 38.9932 10.5941 37.9308 10.5941ZM42.8033 9.49059C43.0339 9.49059 43.248 9.57294 43.4128 9.69647L43.6516 9.09529C43.4292 8.92235 43.0998 8.84 42.7622 8.84C41.8316 8.84 41.321 9.4 41.321 10.2482V10.6353H40.5798V11.2859H41.321V15H42.1116V11.2859H43.3633V10.6353H42.0951V10.2565C42.0951 9.75412 42.3339 9.49059 42.8033 9.49059ZM45.914 15.0494C47.2234 15.0494 48.1787 14.1188 48.1787 12.8176C48.1787 11.5165 47.2234 10.5941 45.914 10.5941C44.6046 10.5941 43.6411 11.5165 43.6411 12.8176C43.6411 14.1188 44.6046 15.0494 45.914 15.0494ZM45.914 14.3576C45.074 14.3576 44.4399 13.7482 44.4399 12.8176C44.4399 11.8871 45.074 11.2859 45.914 11.2859C46.754 11.2859 47.3799 11.8871 47.3799 12.8176C47.3799 13.7482 46.754 14.3576 45.914 14.3576Z" fill="#ECECEC"/>
<rect x="1.29458" y="0.411765" width="59.2941" height="23.0588" rx="2.88235" stroke="#ECECEC" stroke-width="0.823529"/>
</svg>
