<svg width="59" height="24" viewBox="0 0 59 24" fill="none" xmlns="http://www.w3.org/2000/svg">
<path d="M15.977 9.80001C16.8639 9.80001 17.5829 9.08103 17.5829 8.19412C17.5829 7.30722 16.8639 6.58824 15.977 6.58824C15.0901 6.58824 14.3711 7.30722 14.3711 8.19412C14.3711 9.08103 15.0901 9.80001 15.977 9.80001Z" stroke="#ECECEC" stroke-width="0.988235" stroke-linecap="round" stroke-linejoin="round"/>
<path d="M9.55315 13.5471C10.4401 13.5471 11.159 12.8281 11.159 11.9412C11.159 11.0543 10.4401 10.3353 9.55315 10.3353C8.66624 10.3353 7.94727 11.0543 7.94727 11.9412C7.94727 12.8281 8.66624 13.5471 9.55315 13.5471Z" stroke="#ECECEC" stroke-width="0.988235" stroke-linecap="round" stroke-linejoin="round"/>
<path d="M15.977 17.2941C16.8639 17.2941 17.5829 16.5751 17.5829 15.6882C17.5829 14.8013 16.8639 14.0824 15.977 14.0824C15.0901 14.0824 14.3711 14.8013 14.3711 15.6882C14.3711 16.5751 15.0901 17.2941 15.977 17.2941Z" stroke="#ECECEC" stroke-width="0.988235" stroke-linecap="round" stroke-linejoin="round"/>
<path d="M10.9395 12.7495L14.5955 14.8799" stroke="#ECECEC" stroke-width="0.988235" stroke-linecap="round" stroke-linejoin="round"/>
<path d="M14.5902 9.00241L10.9395 11.1329" stroke="#ECECEC" stroke-width="0.988235" stroke-linecap="round" stroke-linejoin="round"/>
<path d="M28.732 15.0659C30.2556 15.0659 30.9638 14.3082 30.9638 13.4271C30.9638 11.3106 27.472 12.1918 27.472 10.7835C27.472 10.2812 27.892 9.86941 28.872 9.86941C29.3826 9.86941 29.9509 10.0176 30.4532 10.3388L30.725 9.68C30.2473 9.35059 29.5473 9.16941 28.872 9.16941C27.3567 9.16941 26.665 9.92706 26.665 10.8165C26.665 12.9576 30.1567 12.0682 30.1567 13.4765C30.1567 13.9788 29.7285 14.3659 28.732 14.3659C27.9909 14.3659 27.2579 14.0859 26.8297 13.6988L26.525 14.3412C26.9862 14.7694 27.8509 15.0659 28.732 15.0659ZM34.3822 10.5941C33.7152 10.5941 33.1716 10.8329 32.8422 11.2529V8.88941H32.0516V15H32.8422V12.7518C32.8422 11.8047 33.3857 11.3024 34.2257 11.3024C34.9752 11.3024 35.4034 11.7224 35.4034 12.5788V15H36.194V12.4882C36.194 11.2035 35.4446 10.5941 34.3822 10.5941ZM39.2465 10.5941C38.5465 10.5941 37.8959 10.7918 37.443 11.1541L37.7724 11.7471C38.11 11.4588 38.6371 11.2776 39.1559 11.2776C39.9383 11.2776 40.3253 11.6647 40.3253 12.3318V12.4882H39.0736C37.7724 12.4882 37.3195 13.0647 37.3195 13.7647C37.3195 14.5224 37.9453 15.0494 38.9336 15.0494C39.6171 15.0494 40.103 14.8188 40.3665 14.4235V15H41.1159V12.3647C41.1159 11.1706 40.4406 10.5941 39.2465 10.5941ZM39.0653 14.44C38.4642 14.44 38.1018 14.1682 38.1018 13.7318C38.1018 13.3612 38.3242 13.0565 39.1065 13.0565H40.3253V13.6659C40.1277 14.1682 39.6583 14.44 39.0653 14.44ZM43.3366 11.3682V10.6353H42.579V15H43.3696V12.8259C43.3696 11.8706 43.8966 11.3518 44.7449 11.3518C44.8025 11.3518 44.8601 11.3518 44.926 11.36V10.5941C44.1601 10.5941 43.6166 10.8576 43.3366 11.3682ZM49.8049 12.8424C49.8049 11.5 48.9073 10.5941 47.6473 10.5941C46.3873 10.5941 45.4567 11.5247 45.4567 12.8176C45.4567 14.1188 46.3955 15.0494 47.8038 15.0494C48.5285 15.0494 49.1296 14.8024 49.5249 14.3412L49.0885 13.8306C48.7673 14.1847 48.339 14.3576 47.8285 14.3576C46.9638 14.3576 46.3461 13.8471 46.2473 13.0812H49.7885C49.7967 13.0071 49.8049 12.9082 49.8049 12.8424ZM47.6473 11.2612C48.4132 11.2612 48.9649 11.78 49.0473 12.5129H46.2473C46.3296 11.7718 46.8896 11.2612 47.6473 11.2612Z" fill="#ECECEC"/>
<rect x="0.411765" y="0.411765" width="57.6471" height="23.0588" rx="2.88235" stroke="#ECECEC" stroke-width="0.823529"/>
</svg>
